<?xml version="1.0" standalone="no"?>
<!DOCTYPE svg PUBLIC "-//W3C//DTD SVG 20010904//EN"
 "http://www.w3.org/TR/2001/REC-SVG-20010904/DTD/svg10.dtd">
<svg version="1.0" xmlns="http://www.w3.org/2000/svg"
 width="2048.000000pt" height="2048.000000pt" viewBox="0 0 2048.000000 2048.000000"
 preserveAspectRatio="xMidYMid meet">
<metadata>
Created by potrace 1.14, written by Peter Selinger 2001-2017
</metadata>
<g transform="translate(0.000000,2048.000000) scale(0.100000,-0.100000)"
fill="#000000" stroke="none">
<path d="M10207 19020 c-3 -11 -1 -20 4 -20 5 0 9 9 9 20 0 11 -2 20 -4 20 -2
0 -6 -9 -9 -20z"/>
<path d="M10217 18857 c-3 -8 -1 -20 4 -28 6 -10 9 -7 9 14 0 29 -5 35 -13 14z"/>
<path d="M16315 16470 c4 -6 11 -8 16 -5 14 9 11 15 -7 15 -8 0 -12 -5 -9 -10z"/>
<path d="M3474 16079 c-3 -6 -1 -16 5 -22 8 -8 11 -5 11 11 0 24 -5 28 -16 11z"/>
<path d="M3471 16018 c-1 -10 -6 -18 -12 -18 -5 0 -7 -5 -3 -11 9 -15 28 16
20 34 -2 7 -5 4 -5 -5z"/>
<path d="M9275 13824 c-16 -2 -72 -9 -124 -15 -368 -43 -894 -266 -1221 -517
-110 -85 -329 -305 -407 -409 -157 -210 -297 -468 -373 -688 -139 -404 -160
-541 -165 -1090 -4 -434 -17 -521 -103 -690 -48 -92 -201 -247 -287 -292 -33
-17 -141 -61 -240 -98 -387 -145 -529 -218 -710 -362 -171 -137 -283 -281
-360 -464 -61 -144 -84 -238 -96 -394 -12 -152 -7 -235 27 -402 81 -411 273
-737 629 -1075 242 -229 494 -380 898 -538 89 -36 244 -77 251 -69 2 2 -6 45
-17 94 -16 75 -20 128 -21 315 -1 196 2 239 21 335 25 121 74 273 121 378 58
127 188 310 337 472 17 18 98 94 180 168 304 273 435 431 554 672 140 283 195
530 216 980 8 178 21 282 51 400 33 135 114 297 199 398 l66 78 -31 38 c-62
77 -92 262 -61 377 33 124 144 188 286 164 63 -10 96 -29 129 -74 18 -23 21
-41 20 -124 0 -53 -4 -139 -9 -189 -4 -55 -4 -93 1 -93 5 0 20 19 34 41 36 60
130 143 197 175 44 21 74 28 124 28 64 1 71 -2 260 -96 391 -197 661 -249
1039 -203 232 29 421 85 633 191 123 61 197 110 291 189 35 30 69 55 74 55 12
0 56 -123 77 -210 19 -83 19 -253 0 -361 -25 -142 -88 -302 -167 -418 -17 -25
-97 -113 -177 -196 -243 -250 -331 -354 -331 -392 0 -27 -5 -27 103 -8 255 44
449 148 644 347 113 114 156 173 224 313 64 133 87 197 125 360 49 210 44 526
-12 692 -50 150 -154 323 -258 429 -60 61 -62 65 -113 217 -93 281 -209 488
-399 714 -116 137 -214 229 -359 338 -151 114 -254 176 -431 261 -269 130
-579 214 -899 244 -102 9 -371 12 -440 4z"/>
<path d="M11150 10214 c-107 -44 -136 -46 -183 -10 -45 34 -46 28 -7 -30 21
-29 41 -46 63 -52 39 -11 42 -9 28 16 -10 18 -2 23 90 57 54 21 102 42 105 46
8 14 -4 10 -96 -27z"/>
<path d="M13705 7864 c-22 -13 -64 -31 -92 -40 -64 -19 -69 -29 -10 -20 44 7
114 43 137 70 16 20 14 19 -35 -10z"/>
</g>
</svg>
